<?xml version="1.0" encoding="UTF-8" standalone="no"?>
<!-- Created with Inkscape (http://www.inkscape.org/) -->

<svg
   width="323.16113"
   height="249.11053"
   viewBox="0 0 323.16113 249.11053"
   version="1.1"
   id="svg1"
   inkscape:version="1.3 (0e150ed6c4, 2023-07-21)"
   sodipodi:docname="PizzBurManAssets.svg"
   xmlns:inkscape="http://www.inkscape.org/namespaces/inkscape"
   xmlns:sodipodi="http://sodipodi.sourceforge.net/DTD/sodipodi-0.dtd"
   xmlns="http://www.w3.org/2000/svg"
   xmlns:svg="http://www.w3.org/2000/svg">
  <sodipodi:namedview
     id="namedview1"
     pagecolor="#ffffff"
     bordercolor="#999999"
     borderopacity="1"
     inkscape:showpageshadow="2"
     inkscape:pageopacity="0"
     inkscape:pagecheckerboard="0"
     inkscape:deskcolor="#d1d1d1"
     inkscape:document-units="px"
     showguides="false"
     inkscape:zoom="0.9206328"
     inkscape:cx="122.19856"
     inkscape:cy="229.73329"
     inkscape:window-width="1920"
     inkscape:window-height="1009"
     inkscape:window-x="-8"
     inkscape:window-y="-8"
     inkscape:window-maximized="1"
     inkscape:current-layer="layer4"
     showgrid="false" />
  <defs
     id="defs1" />
  <g
     inkscape:groupmode="layer"
     id="layer6"
     inkscape:label="Burger malo"
     inkscape:highlight-color="#c9b25a"
     transform="translate(-709.10583,-556.50763)">
    <g
       id="g34">
      <rect
         style="fill:#d45500;stroke:none;stroke-width:1.40822;stroke-linecap:round;stroke-linejoin:round;stroke-miterlimit:3;stroke-dasharray:none"
         id="rect18"
         width="292.22015"
         height="63.847843"
         x="715.98163"
         y="741.77032"
         ry="20.607389"
         rx="27.503073" />
      <rect
         style="fill:#2b1100;stroke:none;stroke-width:0.983711;stroke-linecap:round;stroke-linejoin:round;stroke-miterlimit:3;stroke-dasharray:none"
         id="rect19"
         width="304.25287"
         height="25.742989"
         x="715.98157"
         y="736.85907"
         ry="10.784668" />
      <g
         id="g21"
         transform="matrix(1.1781915,0,0,1.6831682,-255.22061,307.11388)"
         style="fill:#112b00">
        <path
           style="fill:#112b00;stroke:none;stroke-width:1;stroke-linecap:round;stroke-linejoin:round;stroke-miterlimit:3;stroke-dasharray:none"
           id="path19"
           sodipodi:type="arc"
           sodipodi:cx="889.9696"
           sodipodi:cy="248.75381"
           sodipodi:rx="71.489365"
           sodipodi:ry="13.860183"
           sodipodi:start="0"
           sodipodi:end="6.2746697"
           sodipodi:open="true"
           sodipodi:arc-type="arc"
           d="m 961.45897,248.75381 a 71.489365,13.860183 0 0 1 -71.33717,13.86016 71.489365,13.860183 0 0 1 -71.64091,-13.80114 71.489365,13.860183 0 0 1 71.03214,-13.91892 71.489365,13.860183 0 0 1 71.94335,13.74188" />
        <path
           style="fill:#112b00;stroke:none;stroke-width:1;stroke-linecap:round;stroke-linejoin:round;stroke-miterlimit:3;stroke-dasharray:none"
           id="path20"
           sodipodi:type="arc"
           sodipodi:cx="1021.2766"
           sodipodi:cy="248.75381"
           sodipodi:rx="71.489365"
           sodipodi:ry="13.860183"
           sodipodi:start="0"
           sodipodi:end="6.2746697"
           sodipodi:open="true"
           sodipodi:arc-type="arc"
           d="m 1092.766,248.75381 a 71.489365,13.860183 0 0 1 -71.3372,13.86016 71.489365,13.860183 0 0 1 -71.64091,-13.80114 71.489365,13.860183 0 0 1 71.03211,-13.91892 71.489365,13.860183 0 0 1 71.9434,13.74188" />
        <path
           style="fill:#112b00;stroke:none;stroke-width:1;stroke-linecap:round;stroke-linejoin:round;stroke-miterlimit:3;stroke-dasharray:none"
           id="path21"
           sodipodi:type="arc"
           sodipodi:cx="952.7052"
           sodipodi:cy="264.80246"
           sodipodi:rx="71.489365"
           sodipodi:ry="13.860183"
           sodipodi:start="0"
           sodipodi:end="6.2746697"
           sodipodi:open="true"
           sodipodi:arc-type="arc"
           d="m 1024.1946,264.80246 a 71.489365,13.860183 0 0 1 -71.33721,13.86015 71.489365,13.860183 0 0 1 -71.64091,-13.80114 71.489365,13.860183 0 0 1 71.03214,-13.91891 71.489365,13.860183 0 0 1 71.94338,13.74187" />
      </g>
      <rect
         style="fill:#005500;stroke:none;stroke-width:1.40822;stroke-linecap:round;stroke-linejoin:round;stroke-miterlimit:3;stroke-dasharray:none"
         id="rect21"
         width="304.25287"
         height="44.2024"
         x="715.98157"
         y="687.74524"
         ry="22.1012" />
      <rect
         style="fill:#ccff00;stroke:none;stroke-width:0.983711;stroke-linecap:round;stroke-linejoin:round;stroke-miterlimit:3;stroke-dasharray:none"
         id="rect22"
         width="304.25287"
         height="25.742989"
         x="715.98157"
         y="675.46692"
         ry="10.784668" />
      <path
         id="path22"
         style="fill:#d45500;stroke-width:1.40822;stroke-linecap:round;stroke-linejoin:round;stroke-miterlimit:3"
         d="m 1019.6016,648.59589 c 0,50.78238 -62.21963,37.95482 -146.11003,38.06293 -83.8905,0.10806 -157.7841,13.11107 -158.1413,-37.67086 -0.3572,-50.78191 67.2645,-92.1541 151.1534,-92.47842 83.8889,-0.32433 152.37803,40.52161 153.09243,91.30216"
         sodipodi:nodetypes="csssc" />
      <path
         style="fill:#ff0000;stroke:none;stroke-width:1.40822;stroke-linecap:round;stroke-linejoin:round;stroke-miterlimit:3;stroke-dasharray:none"
         d="m 775.28511,611.92593 c 15.04075,-11.66451 18.90837,9.51577 18.90837,9.51577 0,0 -4.51222,14.42718 -15.47048,2e-5"
         id="path23"
         sodipodi:nodetypes="ccc" />
      <path
         style="fill:#ff0000;stroke:none;stroke-width:1.40822;stroke-linecap:round;stroke-linejoin:round;stroke-miterlimit:3;stroke-dasharray:none"
         d="m 817.82893,593.20132 c 15.04075,-11.6645 18.90837,9.51578 18.90837,9.51578 0,0 -4.51222,14.42717 -15.47047,2e-5"
         id="path24"
         sodipodi:nodetypes="ccc" />
      <path
         style="fill:#ff0000;stroke:none;stroke-width:1.40822;stroke-linecap:round;stroke-linejoin:round;stroke-miterlimit:3;stroke-dasharray:none"
         d="m 807.51528,619.90691 c 15.04075,-11.66451 18.90837,9.51577 18.90837,9.51577 0,0 -4.51222,14.42718 -15.47048,2e-5"
         id="path25"
         sodipodi:nodetypes="ccc" />
      <path
         style="fill:#ff0000;stroke:none;stroke-width:1.40822;stroke-linecap:round;stroke-linejoin:round;stroke-miterlimit:3;stroke-dasharray:none"
         d="m 789.68126,586.14122 c 15.04074,-11.6645 18.90837,9.51578 18.90837,9.51578 0,0 -4.51223,14.42717 -15.47048,2e-5"
         id="path26"
         sodipodi:nodetypes="ccc" />
      <path
         style="fill:#ff0000;stroke:none;stroke-width:1.40822;stroke-linecap:round;stroke-linejoin:round;stroke-miterlimit:3;stroke-dasharray:none"
         d="m 843.18332,598.72661 c 15.04075,-11.66451 18.90837,9.51577 18.90837,9.51577 0,0 -4.51222,14.42718 -15.47048,2e-5"
         id="path27"
         sodipodi:nodetypes="ccc" />
      <path
         style="fill:#ff0000;stroke:none;stroke-width:1.40822;stroke-linecap:round;stroke-linejoin:round;stroke-miterlimit:3;stroke-dasharray:none"
         d="m 885.72714,580.002 c 15.04075,-11.6645 18.90837,9.51578 18.90837,9.51578 0,0 -4.51222,14.42717 -15.47047,10e-6"
         id="path28"
         sodipodi:nodetypes="ccc" />
      <path
         style="fill:#ff0000;stroke:none;stroke-width:1.40822;stroke-linecap:round;stroke-linejoin:round;stroke-miterlimit:3;stroke-dasharray:none"
         d="m 875.41349,606.70759 c 15.04075,-11.66451 18.90837,9.51577 18.90837,9.51577 0,0 -4.51222,14.42718 -15.47048,2e-5"
         id="path29"
         sodipodi:nodetypes="ccc" />
      <path
         style="fill:#ff0000;stroke:none;stroke-width:1.40822;stroke-linecap:round;stroke-linejoin:round;stroke-miterlimit:3;stroke-dasharray:none"
         d="m 857.57947,572.9419 c 15.04074,-11.6645 18.90837,9.51578 18.90837,9.51578 0,0 -4.51223,14.42717 -15.47048,10e-6"
         id="path30"
         sodipodi:nodetypes="ccc" />
      <path
         style="fill:#ff0000;stroke:none;stroke-width:1.40822;stroke-linecap:round;stroke-linejoin:round;stroke-miterlimit:3;stroke-dasharray:none"
         d="m 913.87481,628.80876 c 15.04069,-11.6645 18.90834,9.51578 18.90834,9.51578 0,0 -4.51224,14.42717 -15.47045,2e-5"
         id="path31"
         sodipodi:nodetypes="ccc" />
      <path
         style="fill:#ff0000;stroke:none;stroke-width:1.40822;stroke-linecap:round;stroke-linejoin:round;stroke-miterlimit:3;stroke-dasharray:none"
         d="m 956.41861,610.08416 c 15.04079,-11.66451 18.90844,9.51577 18.90844,9.51577 0,0 -4.51224,14.42718 -15.47048,2e-5"
         id="path32"
         sodipodi:nodetypes="ccc" />
      <path
         style="fill:#ff0000;stroke:none;stroke-width:1.40822;stroke-linecap:round;stroke-linejoin:round;stroke-miterlimit:3;stroke-dasharray:none"
         d="m 946.10496,636.78974 c 15.04079,-11.66451 18.90844,9.51578 18.90844,9.51578 0,0 -4.51224,14.42717 -15.47048,10e-6"
         id="path33"
         sodipodi:nodetypes="ccc" />
      <path
         style="fill:#ff0000;stroke:none;stroke-width:1.40822;stroke-linecap:round;stroke-linejoin:round;stroke-miterlimit:3;stroke-dasharray:none"
         d="m 928.27091,603.02406 c 15.04079,-11.66451 18.90844,9.51577 18.90844,9.51577 0,0 -4.51224,14.42718 -15.47048,2e-5"
         id="path34"
         sodipodi:nodetypes="ccc" />
    </g>
  </g>
</svg>
