<?xml version="1.0" encoding="UTF-8" standalone="no"?>
<!-- Created with Inkscape (http://www.inkscape.org/) -->

<svg
   width="485.98846"
   height="722.5509"
   viewBox="0 0 485.98846 722.5509"
   version="1.1"
   id="svg1"
   inkscape:version="1.3 (0e150ed6c4, 2023-07-21)"
   sodipodi:docname="PizzBurManAssets.svg"
   inkscape:export-filename="PizzBurMan\Campo.svg"
   inkscape:export-xdpi="96"
   inkscape:export-ydpi="96"
   xmlns:inkscape="http://www.inkscape.org/namespaces/inkscape"
   xmlns:sodipodi="http://sodipodi.sourceforge.net/DTD/sodipodi-0.dtd"
   xmlns="http://www.w3.org/2000/svg"
   xmlns:svg="http://www.w3.org/2000/svg">
  <sodipodi:namedview
     id="namedview1"
     pagecolor="#ffffff"
     bordercolor="#999999"
     borderopacity="1"
     inkscape:showpageshadow="2"
     inkscape:pageopacity="0"
     inkscape:pagecheckerboard="0"
     inkscape:deskcolor="#d1d1d1"
     inkscape:document-units="px"
     showguides="false"
     inkscape:zoom="0.2301582"
     inkscape:cx="966.72636"
     inkscape:cy="301.96621"
     inkscape:window-width="1920"
     inkscape:window-height="1009"
     inkscape:window-x="-8"
     inkscape:window-y="-8"
     inkscape:window-maximized="1"
     inkscape:current-layer="layer7"
     showgrid="false" />
  <defs
     id="defs1" />
  <g
     inkscape:groupmode="layer"
     id="layer7"
     inkscape:label="Pizza"
     inkscape:highlight-color="#e33bee"
     transform="translate(-110.6507,-1506.2006)">
    <g
       id="g179"
       transform="matrix(1.4113866,0,0,1.3571716,-45.753293,-537.75228)">
      <path
         id="path136"
         style="fill:#ff0000;stroke:#ff0000;stroke-width:12;stroke-linecap:round;stroke-linejoin:round;stroke-miterlimit:3;stroke-dasharray:none"
         d="m 174.87891,1512.1035 c -16.06486,0.019 -32.13128,-0.04 -48.19515,0.032 -2.44727,0.2922 -4.88338,1.9281 -5.48293,4.4196 -0.60583,2.0966 -0.19237,4.2952 -0.31411,6.4397 0,31.4946 0,62.9891 0,94.4836 0.30541,2.2216 1.44383,4.7015 3.75976,5.3965 1.70917,0.7493 3.83069,0.7459 5.34264,-0.447 1.75834,-0.9672 2.85309,-2.8995 2.86486,-4.8958 0.23467,-3.4571 0.30664,-6.9244 0.48796,-10.3854 0.47521,-10.9304 0.95043,-21.8609 1.42564,-32.7913 17.35458,-17.3657 34.73408,-34.7094 52.07308,-52.0888 1.33819,-1.7996 2.25326,-4.3792 1.04996,-6.4835 -0.72668,-1.8489 -2.42707,-3.2966 -4.42706,-3.5227 -2.11665,-0.3472 -4.27682,-0.095 -6.41198,-0.1629 -0.72423,0 -1.44845,0 -2.17267,0.01 z" />
      <path
         id="path137"
         style="fill:#ff0000;stroke:#ff0000;stroke-width:12;stroke-linecap:round;stroke-linejoin:round;stroke-miterlimit:3;stroke-dasharray:none"
         d="m 202.26367,1535.1875 c -1.63035,0.092 -3.3861,-0.2527 -4.86018,0.6521 -0.69749,0.2584 -1.20154,0.9088 -1.61069,1.4925 -0.57354,1.1742 -0.63831,2.4851 -0.56038,3.7648 0,27.5315 0,55.063 0,82.5945 0.32883,1.4445 0.94534,3.1228 2.51523,3.5984 1.51823,0.6583 3.1886,0.3181 4.78624,0.4092 1.30613,-0.016 2.64061,-0.4944 3.62276,-1.3596 1.11002,-1.2911 1.16561,-3.117 1.05976,-4.737 0.0374,-20.9694 0.005,-41.9405 0.016,-62.9106 -0.0166,-6.5268 0.0333,-13.062 -0.0249,-19.5836 -0.32051,-1.4217 -0.96471,-3.0472 -2.50223,-3.5067 -0.77437,-0.3006 -1.61012,-0.4561 -2.44158,-0.414 z" />
      <path
         id="path138"
         style="fill:#ff0000;stroke:#ff0000;stroke-width:12;stroke-linecap:round;stroke-linejoin:round;stroke-miterlimit:3;stroke-dasharray:none"
         d="m 308.78516,1533.2051 c -27.17888,0.01 -54.35893,-0.012 -81.53706,0.01 -1.44592,0.1981 -2.93429,0.7636 -3.9692,1.8147 -1.01042,1.0855 -1.72144,2.4352 -1.82634,3.879 -0.2101,2.4283 1.41019,4.5484 3.22959,5.9661 13.62679,12.2418 27.25357,24.4835 40.88035,36.7253 -11.60992,11.6214 -23.24424,23.2212 -34.8389,34.8562 -1.33468,1.7958 -2.24581,4.3668 -1.05758,6.47 0.73383,1.8702 2.4582,3.3346 4.48515,3.541 2.07574,0.3424 4.18612,0.05 6.27735,0.1523 25.88281,-0.01 51.7677,0.017 77.64922,-0.012 2.20311,-0.3269 4.65533,-1.4873 5.31277,-3.7986 0.81001,-1.8197 0.64852,-4.0592 -0.62293,-5.6323 -1.20792,-1.7306 -3.02452,-2.8832 -4.49976,-4.3617 -11.75594,-10.5611 -23.51188,-21.1222 -35.26782,-31.6832 12.57919,-12.5903 25.1833,-25.1586 37.74691,-37.7626 1.33871,-1.7997 2.25264,-4.3789 1.04997,-6.4835 -0.72672,-1.849 -2.42703,-3.2966 -4.42707,-3.5227 -2.11665,-0.3472 -4.27682,-0.095 -6.41198,-0.1629 -0.72423,0 -1.44845,0 -2.17267,0.01 z" />
      <path
         id="path139"
         style="fill:#ff0000;stroke:#ff0000;stroke-width:12;stroke-linecap:round;stroke-linejoin:round;stroke-miterlimit:3;stroke-dasharray:none"
         d="m 428.60352,1530.1328 c -27.17888,0.01 -54.35893,-0.013 -81.53706,0.01 -1.44638,0.1974 -2.93435,0.7632 -3.9692,1.8148 -1.01083,1.086 -1.72217,2.4363 -1.82634,3.8809 -0.20944,2.4276 1.41081,4.5468 3.22959,5.9641 13.62679,12.2418 27.25357,24.4836 40.88035,36.7253 -11.60992,11.6215 -23.24424,23.2213 -34.8389,34.8562 -1.33802,1.7992 -2.2494,4.3796 -1.04977,6.4837 0.73162,1.866 2.45745,3.3204 4.47734,3.5274 2.07574,0.3424 4.18612,0.05 6.27734,0.1523 25.88282,-0.01 51.76771,0.017 77.64923,-0.013 2.20311,-0.3268 4.65533,-1.4873 5.31277,-3.7986 0.80755,-1.8164 0.65137,-4.0539 -0.61903,-5.6245 -1.20394,-1.7369 -3.02831,-2.8875 -4.50366,-4.3694 -11.75594,-10.5611 -23.51188,-21.1222 -35.26782,-31.6833 12.57919,-12.5903 25.1833,-25.1585 37.74691,-37.7626 1.33871,-1.7996 2.25264,-4.3789 1.04996,-6.4835 -0.72671,-1.849 -2.42702,-3.2966 -4.42706,-3.5227 -2.11666,-0.3472 -4.27682,-0.095 -6.41198,-0.1629 -0.72423,0 -1.44845,0 -2.17267,0.01 z" />
      <path
         id="path140"
         style="fill:#ff0000;stroke:#ff0000;stroke-width:12;stroke-linecap:round;stroke-linejoin:round;stroke-miterlimit:3;stroke-dasharray:none"
         d="m 214.15625,1651.498 c -28.95502,1.0596 -57.91297,2.0384 -86.86914,3.0665 -2.35298,0.3745 -4.84959,1.8014 -5.43545,4.2752 -0.66135,2.2657 -0.22813,4.6478 -0.35361,6.9673 0,54.5754 0,109.1508 0,163.7262 0.29763,2.3055 1.55504,4.8051 3.93337,5.5159 2.21761,0.8442 4.62457,0.3549 6.93186,0.4841 36.7819,0 73.5638,0 110.3457,0 2.23746,-0.3035 4.74039,-1.4684 5.412,-3.8111 0.80807,-1.8117 0.64676,-4.042 -0.61879,-5.6087 -1.23529,-1.7909 -3.18941,-2.8687 -4.76044,-4.3253 -31.95168,-26.3135 -63.90336,-52.627 -95.85503,-78.9404 24.21614,-27.1218 48.43229,-54.2435 72.64844,-81.3653 1.2395,-1.8514 2.0491,-4.4383 0.80887,-6.4953 -0.82704,-1.7994 -2.53598,-3.2314 -4.55692,-3.3797 -0.53914,-0.084 -1.08533,-0.1202 -1.63086,-0.1094 z" />
      <path
         id="path141"
         style="fill:#ff0000;stroke:#ff0000;stroke-width:12;stroke-linecap:round;stroke-linejoin:round;stroke-miterlimit:3;stroke-dasharray:none"
         d="m 314.16016,1703.7363 c -19.33863,1.5678 -38.73554,3.0654 -58.10157,4.6055 -2.33523,0.4863 -4.76851,2.0222 -5.2519,4.5201 -0.5266,2.2514 -0.15955,4.5774 -0.27349,6.8631 0,35.5786 0,71.1573 0,106.7359 0.29821,2.3053 1.5547,4.8053 3.93338,5.5159 2.21761,0.8442 4.62457,0.3549 6.93186,0.4841 17.86876,-0.01 35.73955,0.016 53.60705,-0.012 2.30801,-0.3202 4.77871,-1.622 5.45186,-4.0146 0.68568,-1.7946 0.40478,-3.7661 0.44233,-5.5624 0.0153,-37.7187 0.002,-75.4379 0.007,-113.1568 -0.30266,-2.2642 -1.50165,-4.76 -3.85547,-5.4531 -0.92515,-0.3394 -1.90144,-0.5488 -2.89062,-0.5254 z" />
      <path
         id="path142"
         style="fill:#ff0000;stroke:#ff0000;stroke-width:12;stroke-linecap:round;stroke-linejoin:round;stroke-miterlimit:3;stroke-dasharray:none"
         d="m 434.74805,1676.0645 c -24.10658,0.01 -48.21445,-0.013 -72.32022,0.01 -2.41267,0.2814 -4.83269,1.8071 -5.5333,4.2343 -0.67463,2.1568 -0.24684,4.4328 -0.36719,6.6473 0,43.9418 0,87.8836 0,131.8253 0.29017,2.3776 1.65207,4.9305 4.1139,5.6014 2.24717,0.7029 4.63614,0.4386 6.94929,0.6836 21.53431,1.1748 43.06881,2.382 64.603,3.5365 2.24014,-0.1987 4.77676,-1.2541 5.53499,-3.5617 0.87524,-1.7378 0.84201,-3.9293 -0.30469,-5.539 -1.10369,-1.8295 -2.89123,-3.0824 -4.29695,-4.6583 -19.16925,-19.1693 -38.33849,-38.3385 -57.50774,-57.5078 23.67643,-23.6764 47.35287,-47.3528 71.0293,-71.0293 1.36943,-1.7992 2.3168,-4.395 1.1293,-6.5284 -0.72054,-1.8265 -2.37525,-3.3029 -4.36105,-3.5372 -2.07427,-0.378 -4.19972,-0.1119 -6.29597,-0.183 -0.79089,0 -1.58178,0 -2.37267,0.01 z" />
      <path
         id="path143"
         style="fill:#ff0000;stroke:#ff0000;stroke-width:12;stroke-linecap:round;stroke-linejoin:round;stroke-miterlimit:3;stroke-dasharray:none"
         d="m 201.5,1859.7383 c -1.83604,0.1378 -3.48498,1.2987 -4.60288,2.706 -1.05969,1.5646 -1.8842,3.2756 -2.87688,4.8841 -10.90714,18.8899 -21.81428,37.7798 -32.72141,56.6696 -11.0941,-19.1992 -22.15972,-38.4174 -33.27161,-57.6048 -1.39122,-1.7518 -3.62928,-3.2926 -5.96863,-2.6998 -1.83549,0.2123 -3.62874,1.2941 -4.3322,3.0577 -1.02753,1.6475 -0.86256,3.639 -0.83577,5.4903 0,48.7451 1e-5,97.4901 0,146.2352 0.29347,2.3837 1.65979,4.9455 4.1356,5.6045 2.26653,0.6998 4.67272,0.4464 7.00355,0.7037 24.54156,1.4236 49.08321,2.8798 73.62471,4.283 2.30997,-0.179 4.85146,-1.3232 5.64519,-3.6684 1.0054,-2.2063 0.47841,-4.6798 0.60658,-7.0154 0,-50.9067 0,-101.8133 0,-152.7199 -0.30527,-2.2468 -1.47579,-4.756 -3.83398,-5.42 -0.83225,-0.2762 -1.67968,-0.5776 -2.57227,-0.5058 z" />
      <path
         id="path144"
         style="fill:#ff0000;stroke:#ff0000;stroke-width:12;stroke-linecap:round;stroke-linejoin:round;stroke-miterlimit:3;stroke-dasharray:none"
         d="m 275.69141,1855.2832 c -2.19731,0.047 -3.92228,1.8347 -4.84998,3.6809 -0.70686,1.7116 -0.97523,3.5625 -1.53046,5.3246 -13.35952,49.855 -26.71903,99.7099 -40.07855,149.5648 -0.30303,2.2786 0.23033,5.0186 2.35569,6.2795 1.46641,1.1102 3.3216,1.4068 5.10567,1.5399 27.77175,3.5829 55.5413,7.1989 83.31442,10.7611 2.28106,-0.036 4.91821,-0.9407 5.82969,-3.2289 0.92212,-1.636 1.03899,-3.6639 0.33056,-5.3992 -14.66878,-54.7452 -29.33756,-109.4904 -44.00634,-164.2356 -0.86685,-2.0579 -2.59192,-4.1496 -4.99653,-4.2384 -0.49221,0 -0.98158,-0.084 -1.47417,-0.049 z" />
      <path
         id="path145"
         style="fill:#ff0000;stroke:#ff0000;stroke-width:11.7901;stroke-linecap:round;stroke-linejoin:round;stroke-miterlimit:3;stroke-dasharray:none"
         d="m 287.62109,1950.9844 c -7.35776,0.5717 -14.72614,1.0425 -22.08792,1.5771 -1.16495,0.046 -2.35918,0.1106 -3.37692,0.7412 -1.7451,0.6886 -2.28016,2.7585 -2.14258,4.461 0.22976,1.6212 -0.0178,3.384 0.91992,4.8261 0.44937,1.1055 1.53196,1.7617 2.67559,1.9267 1.59464,0.3116 3.20838,-0.1253 4.81261,-0.1351 6.99617,-0.5092 14.00537,-0.9527 20.99339,-1.5029 1.39518,-0.4201 2.97426,-1.1765 3.3204,-2.7439 0.54684,-1.5535 0.0872,-3.1866 0.0674,-4.779 -0.10136,-1.3107 -0.68062,-2.6165 -1.62133,-3.5372 -0.99763,-0.7435 -2.34738,-0.9091 -3.56055,-0.834 z" />
      <path
         id="path146"
         style="fill:#ff0000;stroke:#ff0000;stroke-width:12;stroke-linecap:round;stroke-linejoin:round;stroke-miterlimit:3;stroke-dasharray:none"
         d="m 442.66797,1854.3301 c -1.72128,0.1169 -3.26312,1.1736 -4.38683,2.4237 -1.0857,1.4472 -1.75626,3.1495 -2.69338,4.6906 -11.61975,21.2047 -23.2395,42.4094 -34.85924,63.6142 -13.07327,-22.625 -26.11807,-45.269 -39.20912,-67.8822 -1.39124,-1.7517 -3.62922,-3.2927 -5.96862,-2.6998 -1.83549,0.2123 -3.62874,1.2941 -4.3322,3.0577 -1.02753,1.6475 -0.86256,3.639 -0.83577,5.4903 0,51.8173 0,103.6346 0,155.452 0.30576,2.2202 1.44203,4.7007 3.75781,5.3945 1.7036,0.7511 3.82258,0.7485 5.33321,-0.4367 1.56872,-0.8538 2.47973,-2.4488 3.22505,-4.0032 12.76639,-23.2987 25.53278,-46.5974 38.29917,-69.896 12.31675,21.3157 24.60504,42.6505 36.93958,63.9544 1.39125,1.7518 3.62922,3.2927 5.96862,2.6999 1.83549,-0.2124 3.62875,-1.2942 4.33221,-3.0578 1.02932,-1.6517 0.8635,-3.6484 0.83576,-5.504 0,-49.1239 0,-98.2479 0,-147.3718 -0.30527,-2.2468 -1.47579,-4.756 -3.83399,-5.42 -0.83225,-0.2762 -1.67967,-0.5776 -2.57226,-0.5058 z" />
      <path
         id="path147"
         style="fill:#ff0000;stroke:#ff0000;stroke-width:12;stroke-linecap:round;stroke-linejoin:round;stroke-miterlimit:3;stroke-dasharray:none"
         d="m 174.87891,1512.1035 c -16.06486,0.019 -32.13128,-0.04 -48.19515,0.032 -2.44727,0.2922 -4.88338,1.9281 -5.48293,4.4196 -0.60583,2.0966 -0.19237,4.2952 -0.31411,6.4397 0,31.4946 0,62.9891 0,94.4836 0.30541,2.2216 1.44383,4.7015 3.75976,5.3965 1.70917,0.7493 3.83069,0.7459 5.34264,-0.447 1.75834,-0.9672 2.85309,-2.8995 2.86486,-4.8958 0.23467,-3.4571 0.30664,-6.9244 0.48796,-10.3854 0.47521,-10.9304 0.95043,-21.8609 1.42564,-32.7913 17.35458,-17.3657 34.73408,-34.7094 52.07308,-52.0888 1.33819,-1.7996 2.25326,-4.3792 1.04996,-6.4835 -0.72668,-1.8489 -2.42707,-3.2966 -4.42706,-3.5227 -2.11665,-0.3472 -4.27682,-0.095 -6.41198,-0.1629 -0.72423,0 -1.44845,0 -2.17267,0.01 z" />
      <path
         id="path148"
         style="fill:#ff0000;stroke:#ff0000;stroke-width:12;stroke-linecap:round;stroke-linejoin:round;stroke-miterlimit:3;stroke-dasharray:none"
         d="m 202.26367,1535.1875 c -1.63035,0.092 -3.3861,-0.2527 -4.86018,0.6521 -0.69749,0.2584 -1.20154,0.9088 -1.61069,1.4925 -0.57354,1.1742 -0.63831,2.4851 -0.56038,3.7648 0,27.5315 0,55.063 0,82.5945 0.32883,1.4445 0.94534,3.1228 2.51523,3.5984 1.51823,0.6583 3.1886,0.3181 4.78624,0.4092 1.30613,-0.016 2.64061,-0.4944 3.62276,-1.3596 1.11002,-1.2911 1.16561,-3.117 1.05976,-4.737 0.0374,-20.9694 0.005,-41.9405 0.016,-62.9106 -0.0166,-6.5268 0.0333,-13.062 -0.0249,-19.5836 -0.32051,-1.4217 -0.96471,-3.0472 -2.50223,-3.5067 -0.77437,-0.3006 -1.61012,-0.4561 -2.44158,-0.414 z" />
      <path
         id="path149"
         style="fill:#ff0000;stroke:#ff0000;stroke-width:12;stroke-linecap:round;stroke-linejoin:round;stroke-miterlimit:3;stroke-dasharray:none"
         d="m 308.78516,1533.2051 c -27.17888,0.01 -54.35893,-0.012 -81.53706,0.01 -1.44592,0.1981 -2.93429,0.7636 -3.9692,1.8147 -1.01042,1.0855 -1.72144,2.4352 -1.82634,3.879 -0.2101,2.4283 1.41019,4.5484 3.22959,5.9661 13.62679,12.2418 27.25357,24.4835 40.88035,36.7253 -11.60992,11.6214 -23.24424,23.2212 -34.8389,34.8562 -1.33468,1.7958 -2.24581,4.3668 -1.05758,6.47 0.73383,1.8702 2.4582,3.3346 4.48515,3.541 2.07574,0.3424 4.18612,0.05 6.27735,0.1523 25.88281,-0.01 51.7677,0.017 77.64922,-0.012 2.20311,-0.3269 4.65533,-1.4873 5.31277,-3.7986 0.81001,-1.8197 0.64852,-4.0592 -0.62293,-5.6323 -1.20792,-1.7306 -3.02452,-2.8832 -4.49976,-4.3617 -11.75594,-10.5611 -23.51188,-21.1222 -35.26782,-31.6832 12.57919,-12.5903 25.1833,-25.1586 37.74691,-37.7626 1.33871,-1.7997 2.25264,-4.3789 1.04997,-6.4835 -0.72672,-1.849 -2.42703,-3.2966 -4.42707,-3.5227 -2.11665,-0.3472 -4.27682,-0.095 -6.41198,-0.1629 -0.72423,0 -1.44845,0 -2.17267,0.01 z" />
      <path
         id="path150"
         style="fill:#ff0000;stroke:#ff0000;stroke-width:12;stroke-linecap:round;stroke-linejoin:round;stroke-miterlimit:3;stroke-dasharray:none"
         d="m 428.60352,1530.1328 c -27.17888,0.01 -54.35893,-0.013 -81.53706,0.01 -1.44638,0.1974 -2.93435,0.7632 -3.9692,1.8148 -1.01083,1.086 -1.72217,2.4363 -1.82634,3.8809 -0.20944,2.4276 1.41081,4.5468 3.22959,5.9641 13.62679,12.2418 27.25357,24.4836 40.88035,36.7253 -11.60992,11.6215 -23.24424,23.2213 -34.8389,34.8562 -1.33802,1.7992 -2.2494,4.3796 -1.04977,6.4837 0.73162,1.866 2.45745,3.3204 4.47734,3.5274 2.07574,0.3424 4.18612,0.05 6.27734,0.1523 25.88282,-0.01 51.76771,0.017 77.64923,-0.013 2.20311,-0.3268 4.65533,-1.4873 5.31277,-3.7986 0.80755,-1.8164 0.65137,-4.0539 -0.61903,-5.6245 -1.20394,-1.7369 -3.02831,-2.8875 -4.50366,-4.3694 -11.75594,-10.5611 -23.51188,-21.1222 -35.26782,-31.6833 12.57919,-12.5903 25.1833,-25.1585 37.74691,-37.7626 1.33871,-1.7996 2.25264,-4.3789 1.04996,-6.4835 -0.72671,-1.849 -2.42702,-3.2966 -4.42706,-3.5227 -2.11666,-0.3472 -4.27682,-0.095 -6.41198,-0.1629 -0.72423,0 -1.44845,0 -2.17267,0.01 z" />
      <path
         id="path151"
         style="fill:#ff0000;stroke:#ff0000;stroke-width:12;stroke-linecap:round;stroke-linejoin:round;stroke-miterlimit:3;stroke-dasharray:none"
         d="m 214.15625,1651.498 c -28.95502,1.0596 -57.91297,2.0384 -86.86914,3.0665 -2.35298,0.3745 -4.84959,1.8014 -5.43545,4.2752 -0.66135,2.2657 -0.22813,4.6478 -0.35361,6.9673 0,54.5754 0,109.1508 0,163.7262 0.29763,2.3055 1.55504,4.8051 3.93337,5.5159 2.21761,0.8442 4.62457,0.3549 6.93186,0.4841 36.7819,0 73.5638,0 110.3457,0 2.23746,-0.3035 4.74039,-1.4684 5.412,-3.8111 0.80807,-1.8117 0.64676,-4.042 -0.61879,-5.6087 -1.23529,-1.7909 -3.18941,-2.8687 -4.76044,-4.3253 -31.95168,-26.3135 -63.90336,-52.627 -95.85503,-78.9404 24.21614,-27.1218 48.43229,-54.2435 72.64844,-81.3653 1.2395,-1.8514 2.0491,-4.4383 0.80887,-6.4953 -0.82704,-1.7994 -2.53598,-3.2314 -4.55692,-3.3797 -0.53914,-0.084 -1.08533,-0.1202 -1.63086,-0.1094 z" />
      <path
         id="path152"
         style="fill:#ff0000;stroke:#ff0000;stroke-width:12;stroke-linecap:round;stroke-linejoin:round;stroke-miterlimit:3;stroke-dasharray:none"
         d="m 314.16016,1703.7363 c -19.33863,1.5678 -38.73554,3.0654 -58.10157,4.6055 -2.33523,0.4863 -4.76851,2.0222 -5.2519,4.5201 -0.5266,2.2514 -0.15955,4.5774 -0.27349,6.8631 0,35.5786 0,71.1573 0,106.7359 0.29821,2.3053 1.5547,4.8053 3.93338,5.5159 2.21761,0.8442 4.62457,0.3549 6.93186,0.4841 17.86876,-0.01 35.73955,0.016 53.60705,-0.012 2.30801,-0.3202 4.77871,-1.622 5.45186,-4.0146 0.68568,-1.7946 0.40478,-3.7661 0.44233,-5.5624 0.0153,-37.7187 0.002,-75.4379 0.007,-113.1568 -0.30266,-2.2642 -1.50165,-4.76 -3.85547,-5.4531 -0.92515,-0.3394 -1.90144,-0.5488 -2.89062,-0.5254 z" />
      <path
         id="path153"
         style="fill:#ff0000;stroke:#ff0000;stroke-width:12;stroke-linecap:round;stroke-linejoin:round;stroke-miterlimit:3;stroke-dasharray:none"
         d="m 434.74805,1676.0645 c -24.10658,0.01 -48.21445,-0.013 -72.32022,0.01 -2.41267,0.2814 -4.83269,1.8071 -5.5333,4.2343 -0.67463,2.1568 -0.24684,4.4328 -0.36719,6.6473 0,43.9418 0,87.8836 0,131.8253 0.29017,2.3776 1.65207,4.9305 4.1139,5.6014 2.24717,0.7029 4.63614,0.4386 6.94929,0.6836 21.53431,1.1748 43.06881,2.382 64.603,3.5365 2.24014,-0.1987 4.77676,-1.2541 5.53499,-3.5617 0.87524,-1.7378 0.84201,-3.9293 -0.30469,-5.539 -1.10369,-1.8295 -2.89123,-3.0824 -4.29695,-4.6583 -19.16925,-19.1693 -38.33849,-38.3385 -57.50774,-57.5078 23.67643,-23.6764 47.35287,-47.3528 71.0293,-71.0293 1.36943,-1.7992 2.3168,-4.395 1.1293,-6.5284 -0.72054,-1.8265 -2.37525,-3.3029 -4.36105,-3.5372 -2.07427,-0.378 -4.19972,-0.1119 -6.29597,-0.183 -0.79089,0 -1.58178,0 -2.37267,0.01 z" />
      <path
         id="path154"
         style="fill:#ff0000;stroke:#ff0000;stroke-width:12;stroke-linecap:round;stroke-linejoin:round;stroke-miterlimit:3;stroke-dasharray:none"
         d="m 201.5,1859.7383 c -1.83604,0.1378 -3.48498,1.2987 -4.60288,2.706 -1.05969,1.5646 -1.8842,3.2756 -2.87688,4.8841 -10.90714,18.8899 -21.81428,37.7798 -32.72141,56.6696 -11.0941,-19.1992 -22.15972,-38.4174 -33.27161,-57.6048 -1.39122,-1.7518 -3.62928,-3.2926 -5.96863,-2.6998 -1.83549,0.2123 -3.62874,1.2941 -4.3322,3.0577 -1.02753,1.6475 -0.86256,3.639 -0.83577,5.4903 0,48.7451 1e-5,97.4901 0,146.2352 0.29347,2.3837 1.65979,4.9455 4.1356,5.6045 2.26653,0.6998 4.67272,0.4464 7.00355,0.7037 24.54156,1.4236 49.08321,2.8798 73.62471,4.283 2.30997,-0.179 4.85146,-1.3232 5.64519,-3.6684 1.0054,-2.2063 0.47841,-4.6798 0.60658,-7.0154 0,-50.9067 0,-101.8133 0,-152.7199 -0.30527,-2.2468 -1.47579,-4.756 -3.83398,-5.42 -0.83225,-0.2762 -1.67968,-0.5776 -2.57227,-0.5058 z" />
      <path
         id="path155"
         style="fill:#ff0000;stroke:#ff0000;stroke-width:12;stroke-linecap:round;stroke-linejoin:round;stroke-miterlimit:3;stroke-dasharray:none"
         d="m 275.69141,1855.2832 c -2.19731,0.047 -3.92228,1.8347 -4.84998,3.6809 -0.70686,1.7116 -0.97523,3.5625 -1.53046,5.3246 -13.35952,49.855 -26.71903,99.7099 -40.07855,149.5648 -0.30303,2.2786 0.23033,5.0186 2.35569,6.2795 1.46641,1.1102 3.3216,1.4068 5.10567,1.5399 27.77175,3.5829 55.5413,7.1989 83.31442,10.7611 2.28106,-0.036 4.91821,-0.9407 5.82969,-3.2289 0.92212,-1.636 1.03899,-3.6639 0.33056,-5.3992 -14.66878,-54.7452 -29.33756,-109.4904 -44.00634,-164.2356 -0.86685,-2.0579 -2.59192,-4.1496 -4.99653,-4.2384 -0.49221,0 -0.98158,-0.084 -1.47417,-0.049 z" />
      <path
         id="path156"
         style="fill:#ff0000;stroke:#ff0000;stroke-width:11.7901;stroke-linecap:round;stroke-linejoin:round;stroke-miterlimit:3;stroke-dasharray:none"
         d="m 287.62109,1950.9844 c -7.35776,0.5717 -14.72614,1.0425 -22.08792,1.5771 -1.16495,0.046 -2.35918,0.1106 -3.37692,0.7412 -1.7451,0.6886 -2.28016,2.7585 -2.14258,4.461 0.22976,1.6212 -0.0178,3.384 0.91992,4.8261 0.44937,1.1055 1.53196,1.7617 2.67559,1.9267 1.59464,0.3116 3.20838,-0.1253 4.81261,-0.1351 6.99617,-0.5092 14.00537,-0.9527 20.99339,-1.5029 1.39518,-0.4201 2.97426,-1.1765 3.3204,-2.7439 0.54684,-1.5535 0.0872,-3.1866 0.0674,-4.779 -0.10136,-1.3107 -0.68062,-2.6165 -1.62133,-3.5372 -0.99763,-0.7435 -2.34738,-0.9091 -3.56055,-0.834 z" />
      <path
         id="path157"
         style="fill:#ff0000;stroke:#ff0000;stroke-width:12;stroke-linecap:round;stroke-linejoin:round;stroke-miterlimit:3;stroke-dasharray:none"
         d="m 442.66797,1854.3301 c -1.72128,0.1169 -3.26312,1.1736 -4.38683,2.4237 -1.0857,1.4472 -1.75626,3.1495 -2.69338,4.6906 -11.61975,21.2047 -23.2395,42.4094 -34.85924,63.6142 -13.07327,-22.625 -26.11807,-45.269 -39.20912,-67.8822 -1.39124,-1.7517 -3.62922,-3.2927 -5.96862,-2.6998 -1.83549,0.2123 -3.62874,1.2941 -4.3322,3.0577 -1.02753,1.6475 -0.86256,3.639 -0.83577,5.4903 0,51.8173 0,103.6346 0,155.452 0.30576,2.2202 1.44203,4.7007 3.75781,5.3945 1.7036,0.7511 3.82258,0.7485 5.33321,-0.4367 1.56872,-0.8538 2.47973,-2.4488 3.22505,-4.0032 12.76639,-23.2987 25.53278,-46.5974 38.29917,-69.896 12.31675,21.3157 24.60504,42.6505 36.93958,63.9544 1.39125,1.7518 3.62922,3.2927 5.96862,2.6999 1.83549,-0.2124 3.62875,-1.2942 4.33221,-3.0578 1.02932,-1.6517 0.8635,-3.6484 0.83576,-5.504 0,-49.1239 0,-98.2479 0,-147.3718 -0.30527,-2.2468 -1.47579,-4.756 -3.83399,-5.42 -0.83225,-0.2762 -1.67967,-0.5776 -2.57226,-0.5058 z" />
      <path
         style="fill:none;stroke:#000000;stroke-width:12;stroke-linecap:round;stroke-linejoin:round;stroke-miterlimit:3;stroke-dasharray:none"
         d="m 126.88595,1617.4791 v -99.3754 h 55.65021 l -53.6627,53.6627"
         id="path100"
         sodipodi:nodetypes="cccc" />
      <path
         style="fill:none;stroke:#000000;stroke-width:12;stroke-linecap:round;stroke-linejoin:round;stroke-miterlimit:3;stroke-dasharray:none"
         d="m 201.2333,1539.2043 v 84.4873"
         id="path101"
         sodipodi:nodetypes="cc" />
      <path
         style="fill:none;stroke:#000000;stroke-width:12;stroke-linecap:round;stroke-linejoin:round;stroke-miterlimit:3;stroke-dasharray:none"
         d="m 227.34755,1539.2043 h 89.09566 l -81.415,81.415 h 82.95113"
         id="path102"
         sodipodi:nodetypes="cccc" />
      <path
         style="fill:none;stroke:#000000;stroke-width:12;stroke-linecap:round;stroke-linejoin:round;stroke-miterlimit:3;stroke-dasharray:none"
         d="m 347.16584,1536.132 h 89.09566 l -81.415,81.415 h 82.95113"
         id="path103"
         sodipodi:nodetypes="cccc" />
      <path
         style="fill:none;stroke:#000000;stroke-width:12;stroke-linecap:round;stroke-linejoin:round;stroke-miterlimit:3;stroke-dasharray:none"
         d="m 127.49896,1660.5588 v 168.9745 h 115.20991 l -104.45698,-86.0234 76.8066,-86.0234 z"
         id="path104"
         sodipodi:nodetypes="cccccc" />
      <path
         style="fill:none;stroke:#000000;stroke-width:12;stroke-linecap:round;stroke-linejoin:round;stroke-miterlimit:3;stroke-dasharray:none"
         d="m 256.53405,1714.3234 v 112.1376 h 58.37302 v -116.746"
         id="path105"
         sodipodi:nodetypes="cccc" />
      <path
         style="fill:none;stroke:#000000;stroke-width:12;stroke-linecap:round;stroke-linejoin:round;stroke-miterlimit:3;stroke-dasharray:none"
         d="m 362.52717,1818.7804 v -136.7158 h 79.87886 l -75.27047,75.2705 65.28562,65.2856"
         id="path106"
         sodipodi:nodetypes="ccccc" />
      <path
         style="fill:none;stroke:#000000;stroke-width:12;stroke-linecap:round;stroke-linejoin:round;stroke-miterlimit:3;stroke-dasharray:none"
         d="m 122.89057,2018.4775 v -149.0048 l 38.40871,66.5259 40.6073,-70.334 v 157.4213"
         id="path107"
         sodipodi:nodetypes="ccccc" />
      <path
         style="fill:none;stroke:#000000;stroke-width:12;stroke-linecap:round;stroke-linejoin:round;stroke-miterlimit:3;stroke-dasharray:none"
         d="m 235.02821,2015.4053 41.33968,-154.2818 44.30707,165.3562"
         id="path108"
         sodipodi:nodetypes="ccc" />
      <path
         style="fill:none;stroke:#000000;stroke-width:11.7901;stroke-linecap:round;stroke-linejoin:round;stroke-miterlimit:3;stroke-dasharray:none"
         d="m 264.10978,1958.6733 24.78799,-1.746"
         id="path109"
         sodipodi:nodetypes="cc" />
      <path
         style="fill:none;stroke:#000000;stroke-width:12;stroke-linecap:round;stroke-linejoin:round;stroke-miterlimit:3;stroke-dasharray:none"
         d="m 356.38264,2018.4775 v -158.2216 l 86.69199,150.155 v -150.155"
         id="path110"
         sodipodi:nodetypes="cccc" />
      <path
         style="fill:none;stroke:#000000;stroke-width:12;stroke-linecap:round;stroke-linejoin:round;stroke-miterlimit:3;stroke-dasharray:none"
         d="m 126.88595,1617.4791 v -99.3754 h 55.65021 l -53.6627,53.6627"
         id="path111"
         sodipodi:nodetypes="cccc" />
      <path
         style="fill:none;stroke:#000000;stroke-width:12;stroke-linecap:round;stroke-linejoin:round;stroke-miterlimit:3;stroke-dasharray:none"
         d="m 201.2333,1539.2043 v 84.4873"
         id="path112"
         sodipodi:nodetypes="cc" />
      <path
         style="fill:none;stroke:#000000;stroke-width:12;stroke-linecap:round;stroke-linejoin:round;stroke-miterlimit:3;stroke-dasharray:none"
         d="m 227.34755,1539.2043 h 89.09566 l -81.415,81.415 h 82.95113"
         id="path113"
         sodipodi:nodetypes="cccc" />
      <path
         style="fill:none;stroke:#000000;stroke-width:12;stroke-linecap:round;stroke-linejoin:round;stroke-miterlimit:3;stroke-dasharray:none"
         d="m 347.16584,1536.132 h 89.09566 l -81.415,81.415 h 82.95113"
         id="path114"
         sodipodi:nodetypes="cccc" />
      <path
         style="fill:none;stroke:#000000;stroke-width:12;stroke-linecap:round;stroke-linejoin:round;stroke-miterlimit:3;stroke-dasharray:none"
         d="m 127.49896,1660.5588 v 168.9745 h 115.20991 l -104.45698,-86.0234 76.8066,-86.0234 z"
         id="path115"
         sodipodi:nodetypes="cccccc" />
      <path
         style="fill:none;stroke:#000000;stroke-width:12;stroke-linecap:round;stroke-linejoin:round;stroke-miterlimit:3;stroke-dasharray:none"
         d="m 256.53405,1714.3234 v 112.1376 h 58.37302 v -116.746"
         id="path116"
         sodipodi:nodetypes="cccc" />
      <path
         style="fill:none;stroke:#000000;stroke-width:12;stroke-linecap:round;stroke-linejoin:round;stroke-miterlimit:3;stroke-dasharray:none"
         d="m 362.52717,1818.7804 v -136.7158 h 79.87886 l -75.27047,75.2705 65.28562,65.2856"
         id="path117"
         sodipodi:nodetypes="ccccc" />
      <path
         style="fill:none;stroke:#000000;stroke-width:12;stroke-linecap:round;stroke-linejoin:round;stroke-miterlimit:3;stroke-dasharray:none"
         d="m 122.89057,2018.4775 v -149.0048 l 38.40871,66.5259 40.6073,-70.334 v 157.4213"
         id="path118"
         sodipodi:nodetypes="ccccc" />
      <path
         style="fill:none;stroke:#000000;stroke-width:12;stroke-linecap:round;stroke-linejoin:round;stroke-miterlimit:3;stroke-dasharray:none"
         d="m 235.02821,2015.4053 41.33968,-154.2818 44.30707,165.3562"
         id="path119"
         sodipodi:nodetypes="ccc" />
      <path
         style="fill:none;stroke:#000000;stroke-width:11.7901;stroke-linecap:round;stroke-linejoin:round;stroke-miterlimit:3;stroke-dasharray:none"
         d="m 264.10978,1958.6733 24.78799,-1.746"
         id="path120"
         sodipodi:nodetypes="cc" />
      <path
         style="fill:none;stroke:#000000;stroke-width:12;stroke-linecap:round;stroke-linejoin:round;stroke-miterlimit:3;stroke-dasharray:none"
         d="m 356.38264,2018.4775 v -158.2216 l 86.69199,150.155 v -150.155"
         id="path135"
         sodipodi:nodetypes="cccc" />
    </g>
  </g>
</svg>
